<svg version="1.1" id="Calque_1" xmlns="http://www.w3.org/2000/svg" xmlns:xlink="http://www.w3.org/1999/xlink" 
	 width="225px" height="165px" viewBox="-60 0 285 165" enable-background="new -60 0 285 165" xml:space="preserve">
<g id="Elements">
	<g>
		<path fill="none" stroke="#FFFFFF" stroke-miterlimit="10" d="M200.90234,116.7832c0,2.01758-1.63672,3.6543-3.65039,3.6543
			h-17.51367c-2.01758,0-3.6543-1.63672-3.6543-3.6543V76.19531c0-2.01758,1.63672-3.65234,3.6543-3.65234h17.51367
			c2.01367,0,3.65039,1.63477,3.65039,3.65234V116.7832z"/>
		<path fill="none" stroke="#FFFFFF" stroke-miterlimit="10" d="M199.04688,111.30273c0,0.33594-0.27539,0.60938-0.61133,0.60938
			h-19.88672c-0.33398,0-0.60938-0.27344-0.60938-0.60938V81.16797c0-0.33594,0.27539-0.61035,0.60938-0.61035h19.88672
			c0.33594,0,0.61133,0.27441,0.61133,0.61035V111.30273z"/>
		<circle fill="none" stroke="#FFFFFF" stroke-miterlimit="10" cx="188.49219" cy="116.07324" r="1.99512"/>
		
			<line fill="#FFFFFF" stroke="#FFFFFF" stroke-linecap="round" stroke-miterlimit="10" x1="186.66797" y1="76.60156" x2="190.32227" y2="76.60156"/>
		
			<line fill="none" stroke="#FFFFFF" stroke-linecap="round" stroke-linejoin="round" stroke-miterlimit="10" x1="188.49414" y1="96.23535" x2="188.49414" y2="96.23535"/>
		
			<ellipse transform="matrix(0.56576 -0.82457 0.82457 0.56576 2.50009 197.21611)" fill="none" stroke="#FFFFFF" stroke-miterlimit="10" cx="188.49414" cy="96.23438" rx="1.82623" ry="6.88023"/>
		
			<ellipse transform="matrix(0.96758 -0.25258 0.25258 0.96758 -18.19531 50.72889)" fill="none" stroke="#FFFFFF" stroke-miterlimit="10" cx="188.49316" cy="96.23584" rx="6.8803" ry="4.80668"/>
		
			<ellipse transform="matrix(0.0484 -0.99883 0.99883 0.0484 83.24713 279.84885)" fill="none" stroke="#FFFFFF" stroke-miterlimit="10" cx="188.49316" cy="96.23486" rx="6.87965" ry="4.52387"/>
	</g>
	<g>
		<g>
			
				<line fill="none" stroke="#FFFFFF" stroke-linecap="round" stroke-miterlimit="10" x1="155.5459" y1="37.3291" x2="156.69336" y2="38.96729"/>
			
				<line fill="none" stroke="#FFFFFF" stroke-linecap="round" stroke-miterlimit="10" stroke-dasharray="4.10492,2.05246" x1="157.87109" y1="40.64795" x2="178.48145" y2="70.06445"/>
			
				<line fill="none" stroke="#FFFFFF" stroke-linecap="round" stroke-miterlimit="10" x1="179.07031" y1="70.90527" x2="180.21777" y2="72.54297"/>
		</g>
	</g>
	<g>
		<path fill="none" stroke="#FFFFFF" stroke-miterlimit="10" d="M173.52344,125.0752c0,2.01758-1.63672,3.6543-3.65039,3.6543
			h-17.51367c-2.01758,0-3.6543-1.63672-3.6543-3.6543V84.4873c0-2.01758,1.63672-3.65234,3.6543-3.65234h17.51367
			c2.01367,0,3.65039,1.63477,3.65039,3.65234V125.0752z"/>
		<path fill="none" stroke="#FFFFFF" stroke-miterlimit="10" d="M171.66797,119.59473c0,0.33594-0.27539,0.60938-0.61133,0.60938
			h-19.88672c-0.33398,0-0.60938-0.27344-0.60938-0.60938V89.45996c0-0.33594,0.27539-0.61035,0.60938-0.61035h19.88672
			c0.33594,0,0.61133,0.27441,0.61133,0.61035V119.59473z"/>
		<circle fill="none" stroke="#FFFFFF" stroke-miterlimit="10" cx="161.11328" cy="124.36523" r="1.99512"/>
		
			<line fill="#FFFFFF" stroke="#FFFFFF" stroke-linecap="round" stroke-miterlimit="10" x1="159.28906" y1="84.89355" x2="162.94336" y2="84.89355"/>
		
			<line fill="none" stroke="#FFFFFF" stroke-linecap="round" stroke-linejoin="round" stroke-miterlimit="10" x1="161.11523" y1="104.52734" x2="161.11523" y2="104.52734"/>
		
			<ellipse transform="matrix(0.56576 -0.82457 0.82457 0.56576 -16.22635 178.24097)" fill="none" stroke="#FFFFFF" stroke-miterlimit="10" cx="161.11523" cy="104.52637" rx="1.82623" ry="6.88023"/>
		
			<ellipse transform="matrix(0.96758 -0.25258 0.25258 0.96758 -21.17737 44.0825)" fill="none" stroke="#FFFFFF" stroke-miterlimit="10" cx="161.11426" cy="104.52783" rx="6.8803" ry="4.80668"/>
		
			<ellipse transform="matrix(0.0484 -0.99883 0.99883 0.0484 48.91122 260.39264)" fill="none" stroke="#FFFFFF" stroke-miterlimit="10" cx="161.11426" cy="104.52686" rx="6.87965" ry="4.52387"/>
	</g>
	<g>
		<g>
			
				<line fill="none" stroke="#FFFFFF" stroke-linecap="round" stroke-miterlimit="10" x1="142.26758" y1="53.93213" x2="143.41504" y2="55.57031"/>
			
				<line fill="none" stroke="#FFFFFF" stroke-linecap="round" stroke-miterlimit="10" stroke-dasharray="3.60625,1.80313" x1="144.4502" y1="57.04688" x2="159.45215" y2="78.45996"/>
			
				<line fill="none" stroke="#FFFFFF" stroke-linecap="round" stroke-miterlimit="10" x1="159.96973" y1="79.19824" x2="161.11719" y2="80.83594"/>
		</g>
	</g>
	<g>
		<path fill="none" stroke="#FFFFFF" stroke-miterlimit="10" d="M102.88086,77.1875H28.83545
			c-1.06689,0-1.93164,0.86523-1.93164,1.93164v46.90039c0,1.06641,0.86475,1.93359,1.93164,1.93359h74.04541
			c1.06836,0,1.93555-0.86719,1.93555-1.93359V79.11914C104.81641,78.05273,103.94922,77.1875,102.88086,77.1875z"/>
		<g>
			<path fill="none" stroke="#FFFFFF" stroke-width="2" stroke-linecap="round" stroke-linejoin="round" stroke-miterlimit="10" d="
				M61.08057,120.02734l4.7793,2.75977l15.2041-8.77734V96.45312l-15.2041-8.77734l-15.20312,8.77734v17.55664l3.63184,2.0957
				c5.59375,3.29102,5.98828-0.79102,5.98828-1.875V98.39844"/>
			<path fill="none" stroke="#FFFFFF" stroke-width="2" stroke-linecap="round" stroke-linejoin="round" stroke-miterlimit="10" d="
				M75.10986,102.64844c0-3.5-3.91895-3.91699-5.33301-3.91699s-5.08398,0.25-5.08398,3.5c0,4.58301,10.75,0.41699,10.75,6.5
				c0,2.74902-4,3.00098-5.75,3.00098s-5.58301-0.50098-5.58301-4.33398"/>
		</g>
		<line fill="#FFFFFF" stroke="#FFFFFF" stroke-miterlimit="10" x1="26.90381" y1="81.89648" x2="104.81641" y2="81.89648"/>
		<circle fill="none" stroke="#FFFFFF" stroke-miterlimit="10" cx="36.26172" cy="79.61035" r="0.96875"/>
		<circle fill="none" stroke="#FFFFFF" stroke-miterlimit="10" cx="33.35791" cy="79.61035" r="0.96875"/>
		<circle fill="none" stroke="#FFFFFF" stroke-miterlimit="10" cx="30.45312" cy="79.61035" r="0.96875"/>
	</g>
	<g>
		<g>
			
				<line fill="none" stroke="#FFFFFF" stroke-linecap="round" stroke-miterlimit="10" x1="104.81641" y1="53.93213" x2="103.66895" y2="55.57031"/>
			
				<line fill="none" stroke="#FFFFFF" stroke-linecap="round" stroke-miterlimit="10" stroke-dasharray="3.75311,1.87656" x1="102.5918" y1="57.10693" x2="90.20898" y2="74.78125"/>
			
				<line fill="none" stroke="#FFFFFF" stroke-linecap="round" stroke-miterlimit="10" x1="89.67041" y1="75.5498" x2="88.52295" y2="77.1875"/>
		</g>
	</g>
	<g id="Server_1_">
		<g>
			<path fill="none" stroke="#FFFFFF" stroke-miterlimit="10" d="M147.10352,17.67969
				c-0.77734-0.77783-2.31445-1.41406-3.41406-1.41406h-54.8335c-1.09961,0-2,0.8999-2,2v23.6665
				c0,1.1001,0.63672,2.63623,1.41406,3.41406l7.17188,7.17188c0.77832,0.77783,2.31445,1.41406,3.41406,1.41406h54.8335
				c1.09961,0,2-0.8999,2-2v-23.6665c0-1.1001-0.63672-2.63623-1.41406-3.41406L147.10352,17.67969z"/>
			<path fill="none" stroke="#FFFFFF" stroke-miterlimit="10" d="M147.10352,17.67969
				c-0.77734-0.77783-2.31445-1.41406-3.41406-1.41406h-54.8335c-1.09961,0-2,0.8999-2,2v23.6665
				c0,1.1001,0.63672,2.63623,1.41406,3.41406l7.17188,7.17188c0.77832,0.77783,2.31445,1.41406,3.41406,1.41406h54.8335
				c1.09961,0,2-0.8999,2-2v-23.6665c0-1.1001-0.63672-2.63623-1.41406-3.41406L147.10352,17.67969z"/>
		</g>
		<path fill="none" stroke="#FFFFFF" stroke-linecap="round" stroke-miterlimit="10" d="M96.85596,51.59863V27.26562
			c0-0.5498,0.4502-1,1-1h55.4585"/>
		
			<line fill="none" stroke="#FFFFFF" stroke-linecap="round" stroke-miterlimit="10" x1="95.18994" y1="24.59912" x2="88.52295" y2="17.93213"/>
		<path id="Smooth" fill="#FFFFFF" d="M147.94336,28.7334c-0.15625-0.08936-0.41016-0.08936-0.56445,0l-5.08789,2.93799
			c-0.15625,0.08984-0.2832,0.31006-0.2832,0.48926v5.87598c0,0.17969,0.12695,0.3999,0.2832,0.48926l5.08789,2.93799
			c0.1543,0.08984,0.4082,0.08984,0.56445,0l5.08789-2.93799c0.15625-0.08936,0.2832-0.30957,0.2832-0.48926v-5.87598
			c0-0.1792-0.12695-0.39941-0.2832-0.48926L147.94336,28.7334z M148.15039,31.63477
			c-0.08984-0.15527-0.01953-0.25098,0.15625-0.21289l3.82812,0.84033c0.17383,0.03857,0.27344,0.20996,0.21875,0.38135
			l-1.18555,3.73535c-0.05469,0.1709-0.17188,0.18359-0.26172,0.02783L148.15039,31.63477z M150.66797,36.64551
			c0.08984,0.15576,0.01562,0.28271-0.16406,0.28271h-5.68555c-0.17969,0-0.25195-0.12695-0.16211-0.28271l2.8418-4.92334
			c0.08984-0.15527,0.23633-0.15527,0.32617,0L150.66797,36.64551z M144.41602,36.40674
			c-0.08984,0.15576-0.20703,0.14307-0.26172-0.02783l-1.18555-3.73535c-0.05469-0.17139,0.04492-0.34277,0.21875-0.38135
			l3.83008-0.84033c0.17383-0.03809,0.24414,0.05762,0.1543,0.21289L144.41602,36.40674z M143.91602,36.70508
			c0.05469,0.1709-0.02734,0.38428-0.18359,0.47363l-0.78906,0.45605c-0.15625,0.08984-0.2832,0.01611-0.2832-0.16309v-4.39502
			c0-0.17969,0.04492-0.18652,0.09766-0.01562L143.91602,36.70508z M143.89453,37.46143
			c0.15625-0.08984,0.38281-0.05518,0.50391,0.07764l2.57617,2.82422c0.12109,0.13232,0.0918,0.16748-0.0625,0.07812
			l-3.80664-2.19775c-0.1543-0.08984-0.1543-0.23682,0-0.32617L143.89453,37.46143z M144.79883,37.49512
			c-0.12109-0.13232-0.07227-0.24072,0.10742-0.24072h5.50977c0.17969,0,0.22852,0.1084,0.10742,0.24072l-2.64258,2.89551
			c-0.12109,0.13232-0.31836,0.13232-0.43945,0L144.79883,37.49512z M150.92383,37.53906
			c0.12109-0.13232,0.34766-0.16748,0.50391-0.07764l0.78906,0.45605c0.15625,0.08936,0.15625,0.23633,0,0.32617l-3.80664,2.19727
			c-0.1543,0.08984-0.18359,0.05469-0.0625-0.07812L150.92383,37.53906z M151.58984,37.17871
			c-0.1543-0.08936-0.23828-0.30273-0.18359-0.47363l1.1582-3.64355c0.05469-0.1709,0.09766-0.16455,0.09766,0.01514v4.39502
			c0,0.17969-0.12695,0.25293-0.2832,0.16309L151.58984,37.17871z M151.91406,31.77881
			c0.1543,0.08984,0.13867,0.13184-0.03711,0.09326l-3.73438-0.81982c-0.17383-0.03857-0.31836-0.2168-0.31836-0.396v-0.91211
			c0-0.1792,0.12695-0.25293,0.2832-0.16309L151.91406,31.77881z M147.21484,29.58105
			c0.15625-0.08984,0.2832-0.01611,0.2832,0.16309v0.91211c0,0.17969-0.14258,0.35791-0.31836,0.396l-3.73438,0.81982
			c-0.17578,0.03857-0.19141-0.00342-0.03711-0.09326L147.21484,29.58105z"/>
	</g>
</g>
<path fill="none" stroke="#FFFFFF" stroke-miterlimit="10" d="M219.33398,157.33301c0,0.55273-0.44727,1-1,1H7.00049
	c-0.55225,0-1-0.44727-1-1V8c0-0.55225,0.44775-1,1-1h211.3335c0.55273,0,1,0.44775,1,1V157.33301z"/>
<line fill="none" stroke="#FFFFFF" stroke-miterlimit="10" x1="6.00049" y1="137.81738" x2="219.33398" y2="137.81738"/>
<g>
	
		<line fill="none" stroke="#FFFFFF" stroke-width="0.25" stroke-miterlimit="10" x1="6.00049" y1="7.14746" x2="6.00146" y2="138.25"/>
	
		<line fill="none" stroke="#FFFFFF" stroke-width="0.25" stroke-miterlimit="10" x1="12.88232" y1="7.14795" x2="12.8833" y2="138.25"/>
	
		<line fill="none" stroke="#FFFFFF" stroke-width="0.25" stroke-miterlimit="10" x1="19.76416" y1="7.14746" x2="19.76514" y2="138.25"/>
	
		<line fill="none" stroke="#FFFFFF" stroke-width="0.25" stroke-miterlimit="10" x1="26.64551" y1="7.14697" x2="26.64648" y2="138.25"/>
	
		<line fill="none" stroke="#FFFFFF" stroke-width="0.5" stroke-miterlimit="10" x1="33.52783" y1="7.14746" x2="33.52783" y2="138.25"/>
	
		<line fill="none" stroke="#FFFFFF" stroke-width="0.25" stroke-miterlimit="10" x1="40.40967" y1="7.14795" x2="40.41016" y2="138.25"/>
	
		<line fill="none" stroke="#FFFFFF" stroke-width="0.25" stroke-miterlimit="10" x1="47.29102" y1="7.14746" x2="47.2915" y2="138.25"/>
	
		<line fill="none" stroke="#FFFFFF" stroke-width="0.25" stroke-miterlimit="10" x1="54.17236" y1="7.14697" x2="54.17334" y2="138.25"/>
	
		<line fill="none" stroke="#FFFFFF" stroke-width="0.5" stroke-miterlimit="10" x1="61.0542" y1="7.14746" x2="61.05518" y2="138.25"/>
	
		<line fill="none" stroke="#FFFFFF" stroke-width="0.25" stroke-miterlimit="10" x1="67.93604" y1="7.14746" x2="67.93701" y2="138.25"/>
	
		<line fill="none" stroke="#FFFFFF" stroke-width="0.25" stroke-miterlimit="10" x1="74.81787" y1="7.14746" x2="74.81885" y2="138.25"/>
	
		<line fill="none" stroke="#FFFFFF" stroke-width="0.25" stroke-miterlimit="10" x1="81.69922" y1="7.14697" x2="81.7002" y2="138.25"/>
	
		<line fill="none" stroke="#FFFFFF" stroke-width="0.5" stroke-miterlimit="10" x1="88.58154" y1="7.14746" x2="88.58154" y2="138.25"/>
	
		<line fill="none" stroke="#FFFFFF" stroke-width="0.25" stroke-miterlimit="10" x1="95.46338" y1="7.14746" x2="95.46338" y2="138.25098"/>
	
		<line fill="none" stroke="#FFFFFF" stroke-width="0.25" stroke-miterlimit="10" x1="102.34375" y1="7.14746" x2="102.3457" y2="138.25"/>
	
		<line fill="none" stroke="#FFFFFF" stroke-width="0.25" stroke-miterlimit="10" x1="109.22656" y1="7.14746" x2="109.22656" y2="138.25"/>
	
		<line fill="none" stroke="#FFFFFF" stroke-width="0.5" stroke-miterlimit="10" x1="116.10742" y1="7.14746" x2="116.10938" y2="138.25"/>
	
		<line fill="none" stroke="#FFFFFF" stroke-width="0.25" stroke-miterlimit="10" x1="122.99023" y1="7.14746" x2="122.99023" y2="138.25"/>
	
		<line fill="none" stroke="#FFFFFF" stroke-width="0.25" stroke-miterlimit="10" x1="129.87109" y1="7.14746" x2="129.87305" y2="138.25"/>
	
		<line fill="none" stroke="#FFFFFF" stroke-width="0.25" stroke-miterlimit="10" x1="136.75391" y1="7.14746" x2="136.75391" y2="138.25"/>
	
		<line fill="none" stroke="#FFFFFF" stroke-width="0.5" stroke-miterlimit="10" x1="143.63477" y1="7.14746" x2="143.63477" y2="138.25"/>
	
		<line fill="none" stroke="#FFFFFF" stroke-width="0.25" stroke-miterlimit="10" x1="150.51758" y1="7.14746" x2="150.51758" y2="138.25"/>
	
		<line fill="none" stroke="#FFFFFF" stroke-width="0.25" stroke-miterlimit="10" x1="157.39844" y1="7.14746" x2="157.39844" y2="138.25"/>
	
		<line fill="none" stroke="#FFFFFF" stroke-width="0.25" stroke-miterlimit="10" x1="164.28125" y1="7.14746" x2="164.28125" y2="138.25"/>
	
		<line fill="none" stroke="#FFFFFF" stroke-width="0.5" stroke-miterlimit="10" x1="171.16211" y1="7.14746" x2="171.16211" y2="138.25"/>
	
		<line fill="none" stroke="#FFFFFF" stroke-width="0.25" stroke-miterlimit="10" x1="178.04492" y1="7.14746" x2="178.04492" y2="138.25"/>
	
		<line fill="none" stroke="#FFFFFF" stroke-width="0.25" stroke-miterlimit="10" x1="184.92578" y1="7.14746" x2="184.92578" y2="138.25"/>
	
		<line fill="none" stroke="#FFFFFF" stroke-width="0.25" stroke-miterlimit="10" x1="191.80859" y1="7.14746" x2="191.80859" y2="138.25"/>
	
		<line fill="none" stroke="#FFFFFF" stroke-width="0.5" stroke-miterlimit="10" x1="198.68945" y1="7.14746" x2="198.68945" y2="138.25"/>
	
		<line fill="none" stroke="#FFFFFF" stroke-width="0.25" stroke-miterlimit="10" x1="205.57031" y1="7.14746" x2="205.57031" y2="138.25"/>
	
		<line fill="none" stroke="#FFFFFF" stroke-width="0.25" stroke-miterlimit="10" x1="212.45312" y1="7.14746" x2="212.45312" y2="138.25"/>
	
		<line fill="none" stroke="#FFFFFF" stroke-width="0.25" stroke-miterlimit="10" x1="219.33398" y1="7.14746" x2="219.33398" y2="138.25"/>
</g>
<g>
	
		<line fill="none" stroke="#FFFFFF" stroke-width="0.25" stroke-miterlimit="10" x1="6.00098" y1="137.81738" x2="219.33398" y2="137.81738"/>
	
		<line fill="none" stroke="#FFFFFF" stroke-width="0.25" stroke-miterlimit="10" x1="6.00049" y1="130.93652" x2="219.33398" y2="130.93555"/>
	
		<line fill="none" stroke="#FFFFFF" stroke-width="0.25" stroke-miterlimit="10" x1="6" y1="124.05469" x2="219.33398" y2="124.05371"/>
	
		<line fill="none" stroke="#FFFFFF" stroke-width="0.5" stroke-miterlimit="10" x1="6.00049" y1="117.17285" x2="219.33398" y2="117.17188"/>
	
		<line fill="none" stroke="#FFFFFF" stroke-width="0.25" stroke-miterlimit="10" x1="6.00049" y1="110.29102" x2="219.33398" y2="110.29004"/>
	
		<line fill="none" stroke="#FFFFFF" stroke-width="0.25" stroke-miterlimit="10" x1="6.00049" y1="103.40918" x2="219.33398" y2="103.4082"/>
	
		<line fill="none" stroke="#FFFFFF" stroke-width="0.25" stroke-miterlimit="10" x1="6" y1="96.52832" x2="219.33398" y2="96.52734"/>
	
		<line fill="none" stroke="#FFFFFF" stroke-width="0.5" stroke-miterlimit="10" x1="6.00049" y1="89.64551" x2="219.33398" y2="89.64551"/>
	
		<line fill="none" stroke="#FFFFFF" stroke-width="0.25" stroke-miterlimit="10" x1="6.00049" y1="82.76367" x2="219.33594" y2="82.76367"/>
	
		<line fill="none" stroke="#FFFFFF" stroke-width="0.25" stroke-miterlimit="10" x1="6.00049" y1="75.88281" x2="219.33398" y2="75.88184"/>
	
		<line fill="none" stroke="#FFFFFF" stroke-width="0.25" stroke-miterlimit="10" x1="6.00049" y1="69.00098" x2="219.33398" y2="69"/>
	
		<line fill="none" stroke="#FFFFFF" stroke-width="0.5" stroke-miterlimit="10" x1="6.00049" y1="62.11914" x2="219.33398" y2="62.11816"/>
	
		<line fill="none" stroke="#FFFFFF" stroke-width="0.25" stroke-miterlimit="10" x1="6.00049" y1="55.23633" x2="219.33398" y2="55.23633"/>
	
		<line fill="none" stroke="#FFFFFF" stroke-width="0.25" stroke-miterlimit="10" x1="6.00049" y1="48.35547" x2="219.33398" y2="48.35449"/>
	
		<line fill="none" stroke="#FFFFFF" stroke-width="0.25" stroke-miterlimit="10" x1="6.00049" y1="41.47363" x2="219.33398" y2="41.47363"/>
	
		<line fill="none" stroke="#FFFFFF" stroke-width="0.5" stroke-miterlimit="10" x1="6.00049" y1="34.5918" x2="219.33398" y2="34.5918"/>
	
		<line fill="none" stroke="#FFFFFF" stroke-width="0.25" stroke-miterlimit="10" x1="6.00049" y1="27.70996" x2="219.33398" y2="27.70996"/>
	
		<line fill="none" stroke="#FFFFFF" stroke-width="0.25" stroke-miterlimit="10" x1="6.00049" y1="20.82812" x2="219.33398" y2="20.82812"/>
	
		<line fill="none" stroke="#FFFFFF" stroke-width="0.25" stroke-miterlimit="10" x1="6.00049" y1="13.94629" x2="219.33398" y2="13.94629"/>
	
		<line fill="none" stroke="#FFFFFF" stroke-width="0.5" stroke-miterlimit="10" x1="6.00049" y1="7.06445" x2="219.33398" y2="7.06445"/>
</g>
<text transform="matrix(1 0 0 1 9.50049 152.83301)" fill="#FFFFFF" font-family="'AmericanTypewriter'" font-size="12">the plan</text>
</svg>
