<svg version="1.1" xmlns="http://www.w3.org/2000/svg" xmlns:xlink="http://www.w3.org/1999/xlink" viewBox="0 0 155 80" enable-background="new 0 0 155 80" width="155" height="80" xml:space="preserve">
  <g fill="#FFFFFF">
  <path fill="#86E0C4" d="M73.936,58.269V21.73c0-1.115-0.789-2.484-1.756-3.043L40.536,0.419C40.054,0.14,39.416,0,38.78,0 c-0.638,0-1.275,0.14-1.757,0.419L5.38,18.686c-0.967,0.559-1.756,1.928-1.756,3.043v36.54c0,1.113,0.79,2.484,1.756,3.043 l31.644,18.269C37.506,79.86,38.143,80,38.781,80c0.637,0,1.273-0.14,1.756-0.419L72.18,61.312 C73.147,60.756,73.936,59.385,73.936,58.269z M67.962,24.73l-7.376,23.229c-0.338,1.062-1.07,1.142-1.627,0.174L41.823,18.458 c-0.559-0.966-0.123-1.561,0.966-1.321l23.807,5.224C67.684,22.601,68.3,23.667,67.962,24.73z M41.552,5.69l23.669,13.665 c0.967,0.558,0.866,0.818-0.225,0.579l-23.219-5.097c-1.088-0.238-1.98-1.349-1.981-2.463l-0.001-5.669 C39.796,5.588,40.585,5.132,41.552,5.69z M39.797,19.003l17.676,30.615c0.558,0.969,0.101,1.758-1.014,1.758H21.105 c-1.116,0-1.572-0.789-1.014-1.758l17.676-30.615C38.325,18.037,39.238,18.037,39.797,19.003z M12.339,19.355L36.01,5.689 c0.965-0.558,1.757-0.102,1.757,1.014l0,5.671c0,1.115-0.891,2.225-1.981,2.463l-23.222,5.097 C11.473,20.173,11.372,19.912,12.339,19.355z M10.965,22.362l23.807-5.224c1.09-0.24,1.525,0.354,0.967,1.321L18.603,48.135 c-0.557,0.969-1.29,0.89-1.628-0.174L9.597,24.73C9.26,23.668,9.875,22.602,10.965,22.362z M7.681,54.756V27.425 c0-1.116,0.275-1.159,0.614-0.095l7.197,22.66c0.338,1.062-0.178,2.387-1.143,2.947L9.437,55.77 C8.47,56.327,7.681,55.869,7.681,54.756z M34.122,73.221l-23.67-13.668c-0.967-0.558-0.967-1.47,0-2.027l4.913-2.835 c0.965-0.558,2.371-0.34,3.123,0.484l16.024,17.561C35.263,73.561,35.089,73.781,34.122,73.221z M40.147,72.908 c-0.752,0.823-1.982,0.823-2.735,0L20.986,54.904c-0.753-0.825-0.455-1.499,0.661-1.499h34.268c1.114,0,1.413,0.676,0.662,1.499 L40.147,72.908z M67.109,59.553L43.441,73.219c-0.967,0.557-1.142,0.341-0.391-0.485l16.025-17.559 c0.75-0.824,2.158-1.042,3.125-0.484l4.91,2.835C68.075,58.084,68.075,58.996,67.109,59.553z M69.88,54.756 c0,1.113-0.79,1.571-1.756,1.015l-4.909-2.834c-0.967-0.561-1.481-1.887-1.144-2.949l7.196-22.657 c0.337-1.063,0.613-1.021,0.613,0.095V54.756z"/>
  <path d="M88.787,58.582h-4.003V20.903h4.003V58.582z"/>
  <path d="M98.27,58.582h-4.007V31.435h4.007V58.582z M98.525,25.961h-4.518v-5.058h4.518V25.961z"/>
  <path d="M125.558,58.582h-2.336l-5.958-19.16l-5.956,19.16h-2.362L99.88,31.435h4.105l6.06,19.215l5.958-19.215h2.525l5.931,19.215 l6.058-19.215h4.107L125.558,58.582z"/>
  <path d="M145.471,59.096h-2.107c-1.114,0-2.18-0.217-3.17-0.64c-0.99-0.421-1.862-1.011-2.6-1.745 c-0.736-0.737-1.323-1.61-1.746-2.598c-0.424-0.993-0.638-2.061-0.638-3.172V39.074c0-1.114,0.214-2.181,0.638-3.172 c0.423-0.988,1.01-1.861,1.746-2.599c0.738-0.737,1.61-1.323,2.6-1.746c0.992-0.424,2.057-0.638,3.17-0.638h2.107 c1.111,0,2.178,0.214,3.17,0.638c0.987,0.422,1.859,1.009,2.599,1.746c0.737,0.737,1.324,1.61,1.746,2.599 c0.424,0.99,0.638,2.058,0.638,3.171v6.612h-14.41v5.435c0,0.576,0.11,1.12,0.325,1.62c0.217,0.506,0.517,0.948,0.888,1.317 c0.372,0.372,0.815,0.671,1.318,0.887c0.501,0.216,1.044,0.328,1.618,0.328h2.107c0.573,0,1.117-0.112,1.616-0.328 c0.507-0.216,0.948-0.513,1.32-0.887c0.369-0.369,0.668-0.812,0.887-1.317c0.214-0.502,0.325-1.046,0.325-1.62v-2.241l4.004,0.649 v1.414c0,1.111-0.214,2.181-0.638,3.172c-0.422,0.987-1.009,1.86-1.746,2.598c-0.738,0.736-1.61,1.324-2.598,1.746 C147.65,58.88,146.585,59.096,145.471,59.096z M139.214,42.376h10.405v-3.481c0-0.572-0.11-1.115-0.325-1.618 c-0.219-0.506-0.516-0.95-0.888-1.32c-0.371-0.37-0.813-0.669-1.319-0.887c-0.5-0.216-1.044-0.326-1.616-0.326h-2.107 c-0.574,0-1.117,0.108-1.617,0.326c-0.508,0.218-0.949,0.517-1.318,0.886c-0.373,0.372-0.672,0.815-0.89,1.319 c-0.214,0.501-0.324,1.045-0.324,1.619V42.376L139.214,42.376z"/>
  </g>
</svg>