<svg version="1.1" xmlns="http://www.w3.org/2000/svg" xmlns:xlink="http://www.w3.org/1999/xlink" x="0px" y="0px"
width="196px" height="110px" viewBox="0 0 196 110" enable-background="new 0 0 196 110" xml:space="preserve">
	<path fill="none" stroke="#004C26" stroke-width="4" stroke-linecap="round" d="M103.969,72.151 c8.594-3.296,12.885-12.933,9.583-21.524c-3.296-8.591-12.934-12.881-21.524-9.583c-8.591,3.296-12.882,12.937-9.583,21.524 c1.694,4.406,5.176,7.892,9.583,9.582l-11.222,29.248C56.062,91.902,43.703,64.144,53.2,39.406 c9.497-24.744,37.252-37.104,62-27.606c24.744,9.497,37.098,37.253,27.601,62c-4.871,12.695-14.905,22.729-27.601,27.6 L103.969,72.151z"/>
	<path fill="none" stroke="#3FA652" stroke-width="4" stroke-linecap="round" stroke-miterlimit="10" d="M118.405,93.001 c8.448-4.733,15.056-12.29,18.568-21.446c8.262-21.528-2.484-45.675-24.011-53.937c-21.529-8.262-45.676,2.491-53.938,24.016 c-7.531,19.618,0.742,41.415,18.57,51.375"/>
	<path fill="none" stroke="#3FA652" stroke-width="4" stroke-linecap="round" stroke-miterlimit="10" d="M116.142,87.098 c6.809-4.047,12.128-10.286,15.006-17.788c7.027-18.31-2.112-38.847-20.422-45.874c-18.311-7.026-38.847,2.118-45.874,20.427 c-6.293,16.394,0.393,34.573,15.009,43.238"/>
	<path fill="none" stroke="#3FA652" stroke-width="4" stroke-linecap="round" stroke-miterlimit="10" d="M113.867,81.165 c5.174-3.339,9.213-8.257,11.454-14.101c5.792-15.092-1.741-32.019-16.832-37.811C93.396,23.462,76.47,31,70.678,46.09 c-5.055,13.166,0.045,27.735,11.456,35.08"/>
	<path fill="none" stroke="#3FA652" stroke-width="4" stroke-linecap="round" stroke-miterlimit="10" d="M111.568,75.171 c3.551-2.591,6.323-6.17,7.927-10.352c4.558-11.873-1.369-25.19-13.243-29.748c-11.874-4.556-25.191,1.374-29.748,13.247 c-3.812,9.932-0.28,20.875,7.929,26.854"/>
</svg>
