<svg version="1.1" xmlns="http://www.w3.org/2000/svg" xmlns:xlink="http://www.w3.org/1999/xlink" width="480"
	 height="320" viewBox="0 0 480 320" enable-background="new 0 0 480 320" xml:space="preserve">
<g id="now">
	<g transform="translate(-100,0)">
		
			<line fill="none" stroke="#FFFFFF" stroke-width="4" stroke-linecap="round" stroke-linejoin="round" stroke-miterlimit="10" x1="440.34277" y1="66.80713" x2="440.34473" y2="66.80713"/>
		
			<ellipse transform="matrix(0.56603 -0.82439 0.82439 0.56603 136.02576 392.00677)" fill="none" stroke="#FFFFFF" stroke-width="4" stroke-miterlimit="10" cx="440.3457" cy="66.80444" rx="9.29934" ry="35.0259"/>
		
			<ellipse transform="matrix(0.96757 -0.25259 0.25259 0.96757 -2.59671 113.39311)" fill="none" stroke="#FFFFFF" stroke-width="4" stroke-miterlimit="10" cx="440.33984" cy="66.81006" rx="35.02543" ry="24.47278"/>
		
			<ellipse transform="matrix(0.0485 -0.99882 0.99882 0.0485 352.25595 503.38699)" fill="none" stroke="#FFFFFF" stroke-width="4" stroke-miterlimit="10" cx="440.34033" cy="66.80518" rx="35.02316" ry="23.02856"/>
	</g>
	<g>
		<path fill="none" stroke="#FFFFFF" stroke-width="4" stroke-linecap="round" stroke-linejoin="round" stroke-miterlimit="10" d="
			M225.83105,98.64648l-5.99707-6.4375c0,0-3.11914-5.41211,0.95508-9.66211c4.58008-4.34375,7.32031-5.74609,7.32031-5.74609"/>
		<path fill="none" stroke="#FFFFFF" stroke-width="4" stroke-linecap="round" stroke-linejoin="round" stroke-miterlimit="10" d="
			M228.22852,87.5332V49.25586c0,0,0.35547-5.33594,5.12793-5.33594s4.90527,5.33594,4.90527,5.33594v22.70898
			c0,0,0-3.95508,5.2207-3.95508c4.81348,0,4.81348,4.7168,4.81348,4.7168s0-3.8125,5.36523-3.8125
			c4.66016,0,4.64844,4.96094,4.64844,4.96094s0.32812-3.69727,5.44141-3.74023c4.625-0.03906,4.61133,5.46094,4.61133,5.46094
			v16.65039c0,7.49609-5.9375,10.75391-5.9375,10.75391"/>
		<path fill="none" stroke="#FFFFFF" stroke-width="4" stroke-linecap="round" stroke-linejoin="round" stroke-miterlimit="10" d="
			M223.39941,57.76855c-2.27051-2.43945-3.6582-5.71045-3.6582-9.30566c0-7.54785,6.11914-13.66699,13.66699-13.66699
			s13.66699,6.11914,13.66699,13.66699c0,3.76416-1.52148,7.17285-3.98438,9.64551"/>
		<path fill="none" stroke="#FFFFFF" stroke-width="4" stroke-linecap="round" stroke-linejoin="round" stroke-miterlimit="10" d="
			M223.40039,64.22168c-5.20508-3.31152-8.65918-8.49561-8.65918-15.75879c0-10.30908,8.3584-18.66699,18.66699-18.66699
			c10.30957,0,18.66699,8.35693,18.66699,18.66602c0,5.90723-2.74316,11.17188-7.02734,14.5918"/>
	</g>
	<g>
		<circle fill="none" stroke="#FFFFFF" stroke-width="8" stroke-miterlimit="10" cx="133.5" cy="66.79883" r="25.3291"/>
		<circle fill="none" stroke="#FFFFFF" stroke-width="4" stroke-miterlimit="10" cx="133.5" cy="66.79883" r="35"/>
	</g>
</g>
</svg>
